# https://github.com/mikedh/trimesh
v 206.00000000 280.00000000 0.00000000 0.09019608 0.87450980 0.94117647
v 206.00000000 280.00000000 5.00000000 0.09019608 0.87450980 0.94117647
v 82.00000000 279.00000000 0.00000000 0.09019608 0.87450980 0.94117647
v 82.00000000 279.00000000 5.00000000 0.09019608 0.87450980 0.94117647
v 115.00000000 153.00000000 0.00000000 0.09019608 0.87450980 0.94117647
v 115.00000000 153.00000000 5.00000000 0.09019608 0.87450980 0.94117647
v 238.00000000 153.00000000 0.00000000 0.09019608 0.87450980 0.94117647
v 238.00000000 153.00000000 5.00000000 0.09019608 0.87450980 0.94117647
v 81.00000000 278.00000000 0.00000000 0.09019608 0.87450980 0.94117647
v 81.00000000 278.00000000 5.00000000 0.09019608 0.87450980 0.94117647
v 81.00000000 266.00000000 0.00000000 0.09019608 0.87450980 0.94117647
v 81.00000000 266.00000000 5.00000000 0.09019608 0.87450980 0.94117647
v 80.00000000 270.00000000 0.00000000 0.09019608 0.87450980 0.94117647
v 80.00000000 270.00000000 5.00000000 0.09019608 0.87450980 0.94117647
v 80.00000000 276.00000000 0.00000000 0.09019608 0.87450980 0.94117647
v 80.00000000 276.00000000 5.00000000 0.09019608 0.87450980 0.94117647
v 113.00000000 155.00000000 0.00000000 0.09019608 0.87450980 0.94117647
v 113.00000000 155.00000000 5.00000000 0.09019608 0.87450980 0.94117647
v 236.00000000 184.00000000 0.00000000 0.09019608 0.87450980 0.94117647
v 236.00000000 184.00000000 5.00000000 0.09019608 0.87450980 0.94117647
v 235.00000000 152.00000000 0.00000000 0.09019608 0.87450980 0.94117647
v 235.00000000 152.00000000 5.00000000 0.09019608 0.87450980 0.94117647
v 111.00000000 159.00000000 0.00000000 0.09019608 0.87450980 0.94117647
v 111.00000000 159.00000000 5.00000000 0.09019608 0.87450980 0.94117647
v 210.00000000 276.00000000 0.00000000 0.09019608 0.87450980 0.94117647
v 210.00000000 276.00000000 5.00000000 0.09019608 0.87450980 0.94117647
v 86.00000000 248.00000000 0.00000000 0.09019608 0.87450980 0.94117647
v 86.00000000 248.00000000 5.00000000 0.09019608 0.87450980 0.94117647
v 119.00000000 152.00000000 0.00000000 0.09019608 0.87450980 0.94117647
v 119.00000000 152.00000000 5.00000000 0.09019608 0.87450980 0.94117647
v 218.00000000 248.00000000 0.00000000 0.09019608 0.87450980 0.94117647
v 218.00000000 248.00000000 5.00000000 0.09019608 0.87450980 0.94117647
v 209.00000000 278.00000000 0.00000000 0.09019608 0.87450980 0.94117647
v 209.00000000 278.00000000 5.00000000 0.09019608 0.87450980 0.94117647
v 242.00000000 162.00000000 0.00000000 0.09019608 0.87450980 0.94117647
v 242.00000000 162.00000000 5.00000000 0.09019608 0.87450980 0.94117647
v 242.00000000 157.00000000 0.00000000 0.09019608 0.87450980 0.94117647
v 242.00000000 157.00000000 5.00000000 0.09019608 0.87450980 0.94117647
v 93.00000000 223.00000000 0.00000000 0.09019608 0.87450980 0.94117647
v 93.00000000 223.00000000 5.00000000 0.09019608 0.87450980 0.94117647
v 109.00000000 166.00000000 0.00000000 0.09019608 0.87450980 0.94117647
v 109.00000000 166.00000000 5.00000000 0.09019608 0.87450980 0.94117647
v 208.00000000 279.00000000 0.00000000 0.09019608 0.87450980 0.94117647
v 208.00000000 279.00000000 5.00000000 0.09019608 0.87450980 0.94117647
v 241.00000000 155.00000000 0.00000000 0.09019608 0.87450980 0.94117647
v 241.00000000 155.00000000 5.00000000 0.09019608 0.87450980 0.94117647
v 241.00000000 166.00000000 0.00000000 0.09019608 0.87450980 0.94117647
v 241.00000000 166.00000000 5.00000000 0.09019608 0.87450980 0.94117647
v 84.00000000 280.00000000 0.00000000 0.09019608 0.87450980 0.94117647
v 84.00000000 280.00000000 5.00000000 0.09019608 0.87450980 0.94117647
v 240.00000000 154.00000000 0.00000000 0.09019608 0.87450980 0.94117647
v 240.00000000 154.00000000 5.00000000 0.09019608 0.87450980 0.94117647
v 99.00000000 162.00000000 0.00000000 0.06274510 0.90980392 0.85882353
v 99.00000000 162.00000000 5.00000000 0.06274510 0.90980392 0.85882353
v 99.00000000 158.00000000 0.00000000 0.06274510 0.90980392 0.85882353
v 99.00000000 158.00000000 5.00000000 0.06274510 0.90980392 0.85882353
v 82.00000000 222.00000000 0.00000000 0.06274510 0.90980392 0.85882353
v 82.00000000 222.00000000 5.00000000 0.06274510 0.90980392 0.85882353
v 24.00000000 160.00000000 0.00000000 0.06274510 0.90980392 0.85882353
v 24.00000000 160.00000000 5.00000000 0.06274510 0.90980392 0.85882353
v 32.00000000 152.00000000 0.00000000 0.06274510 0.90980392 0.85882353
v 32.00000000 152.00000000 5.00000000 0.06274510 0.90980392 0.85882353
v 97.00000000 154.00000000 0.00000000 0.06274510 0.90980392 0.85882353
v 97.00000000 154.00000000 5.00000000 0.06274510 0.90980392 0.85882353
v 80.00000000 224.00000000 0.00000000 0.06274510 0.90980392 0.85882353
v 80.00000000 224.00000000 5.00000000 0.06274510 0.90980392 0.85882353
v 22.00000000 167.00000000 0.00000000 0.06274510 0.90980392 0.85882353
v 22.00000000 167.00000000 5.00000000 0.06274510 0.90980392 0.85882353
v 96.00000000 173.00000000 0.00000000 0.06274510 0.90980392 0.85882353
v 96.00000000 173.00000000 5.00000000 0.06274510 0.90980392 0.85882353
v 13.00000000 225.00000000 0.00000000 0.06274510 0.90980392 0.85882353
v 13.00000000 225.00000000 5.00000000 0.06274510 0.90980392 0.85882353
v 87.00000000 205.00000000 0.00000000 0.06274510 0.90980392 0.85882353
v 87.00000000 205.00000000 5.00000000 0.06274510 0.90980392 0.85882353
v 29.00000000 153.00000000 0.00000000 0.06274510 0.90980392 0.85882353
v 29.00000000 153.00000000 5.00000000 0.06274510 0.90980392 0.85882353
v 95.00000000 153.00000000 0.00000000 0.06274510 0.90980392 0.85882353
v 95.00000000 153.00000000 5.00000000 0.06274510 0.90980392 0.85882353
v 78.00000000 225.00000000 0.00000000 0.06274510 0.90980392 0.85882353
v 78.00000000 225.00000000 5.00000000 0.06274510 0.90980392 0.85882353
v 11.00000000 206.00000000 0.00000000 0.06274510 0.90980392 0.85882353
v 11.00000000 206.00000000 5.00000000 0.06274510 0.90980392 0.85882353
v 11.00000000 224.00000000 0.00000000 0.06274510 0.90980392 0.85882353
v 11.00000000 224.00000000 5.00000000 0.06274510 0.90980392 0.85882353
v 27.00000000 154.00000000 0.00000000 0.06274510 0.90980392 0.85882353
v 27.00000000 154.00000000 5.00000000 0.06274510 0.90980392 0.85882353
v 26.00000000 155.00000000 0.00000000 0.06274510 0.90980392 0.85882353
v 26.00000000 155.00000000 5.00000000 0.06274510 0.90980392 0.85882353
v 92.00000000 152.00000000 0.00000000 0.06274510 0.90980392 0.85882353
v 92.00000000 152.00000000 5.00000000 0.06274510 0.90980392 0.85882353
v 9.00000000 214.00000000 0.00000000 0.06274510 0.90980392 0.85882353
v 9.00000000 214.00000000 5.00000000 0.06274510 0.90980392 0.85882353
v 9.00000000 222.00000000 0.00000000 0.06274510 0.90980392 0.85882353
v 9.00000000 222.00000000 5.00000000 0.06274510 0.90980392 0.85882353
v 83.00000000 219.00000000 0.00000000 0.06274510 0.90980392 0.85882353
v 83.00000000 219.00000000 5.00000000 0.06274510 0.90980392 0.85882353
v 25.00000000 157.00000000 0.00000000 0.06274510 0.90980392 0.85882353
v 25.00000000 157.00000000 5.00000000 0.06274510 0.90980392 0.85882353
v 256.00000000 113.00000000 0.00000000 0.05490196 0.92156863 0.83529412
v 256.00000000 113.00000000 5.00000000 0.05490196 0.92156863 0.83529412
v 198.00000000 62.00000000 0.00000000 0.05490196 0.92156863 0.83529412
v 198.00000000 62.00000000 5.00000000 0.05490196 0.92156863 0.83529412
v 181.00000000 134.00000000 0.00000000 0.05490196 0.92156863 0.83529412
v 181.00000000 134.00000000 5.00000000 0.05490196 0.92156863 0.83529412
v 247.00000000 134.00000000 0.00000000 0.05490196 0.92156863 0.83529412
v 247.00000000 134.00000000 5.00000000 0.05490196 0.92156863 0.83529412
v 263.00000000 62.00000000 0.00000000 0.05490196 0.92156863 0.83529412
v 263.00000000 62.00000000 5.00000000 0.05490196 0.92156863 0.83529412
v 178.00000000 131.00000000 0.00000000 0.05490196 0.92156863 0.83529412
v 178.00000000 131.00000000 5.00000000 0.05490196 0.92156863 0.83529412
v 244.00000000 135.00000000 0.00000000 0.05490196 0.92156863 0.83529412
v 244.00000000 135.00000000 5.00000000 0.05490196 0.92156863 0.83529412
v 252.00000000 127.00000000 0.00000000 0.05490196 0.92156863 0.83529412
v 252.00000000 127.00000000 5.00000000 0.05490196 0.92156863 0.83529412
v 194.00000000 66.00000000 0.00000000 0.05490196 0.92156863 0.83529412
v 194.00000000 66.00000000 5.00000000 0.05490196 0.92156863 0.83529412
v 177.00000000 129.00000000 0.00000000 0.05490196 0.92156863 0.83529412
v 177.00000000 129.00000000 5.00000000 0.05490196 0.92156863 0.83529412
v 177.00000000 125.00000000 0.00000000 0.05490196 0.92156863 0.83529412
v 177.00000000 125.00000000 5.00000000 0.05490196 0.92156863 0.83529412
v 251.00000000 130.00000000 0.00000000 0.05490196 0.92156863 0.83529412
v 251.00000000 130.00000000 5.00000000 0.05490196 0.92156863 0.83529412
v 193.00000000 68.00000000 0.00000000 0.05490196 0.92156863 0.83529412
v 193.00000000 68.00000000 5.00000000 0.05490196 0.92156863 0.83529412
v 267.00000000 74.00000000 0.00000000 0.05490196 0.92156863 0.83529412
v 267.00000000 74.00000000 5.00000000 0.05490196 0.92156863 0.83529412
v 267.00000000 65.00000000 0.00000000 0.05490196 0.92156863 0.83529412
v 267.00000000 65.00000000 5.00000000 0.05490196 0.92156863 0.83529412
v 184.00000000 135.00000000 0.00000000 0.05490196 0.92156863 0.83529412
v 184.00000000 135.00000000 5.00000000 0.05490196 0.92156863 0.83529412
v 250.00000000 132.00000000 0.00000000 0.05490196 0.92156863 0.83529412
v 250.00000000 132.00000000 5.00000000 0.05490196 0.92156863 0.83529412
v 249.00000000 133.00000000 0.00000000 0.05490196 0.92156863 0.83529412
v 249.00000000 133.00000000 5.00000000 0.05490196 0.92156863 0.83529412
v 265.00000000 63.00000000 0.00000000 0.05490196 0.92156863 0.83529412
v 265.00000000 63.00000000 5.00000000 0.05490196 0.92156863 0.83529412
v 66.00000000 12.00000000 0.00000000 0.02745098 0.95294118 0.74509804
v 66.00000000 12.00000000 5.00000000 0.02745098 0.95294118 0.74509804
v 165.00000000 128.00000000 0.00000000 0.02745098 0.95294118 0.74509804
v 165.00000000 128.00000000 5.00000000 0.02745098 0.95294118 0.74509804
v 41.00000000 135.00000000 0.00000000 0.02745098 0.95294118 0.74509804
v 41.00000000 135.00000000 5.00000000 0.02745098 0.95294118 0.74509804
v 173.00000000 100.00000000 0.00000000 0.02745098 0.95294118 0.74509804
v 173.00000000 100.00000000 5.00000000 0.02745098 0.95294118 0.74509804
v 65.00000000 15.00000000 0.00000000 0.02745098 0.95294118 0.74509804
v 65.00000000 15.00000000 5.00000000 0.02745098 0.95294118 0.74509804
v 164.00000000 131.00000000 0.00000000 0.02745098 0.95294118 0.74509804
v 164.00000000 131.00000000 5.00000000 0.02745098 0.95294118 0.74509804
v 196.00000000 11.00000000 0.00000000 0.02745098 0.95294118 0.74509804
v 196.00000000 11.00000000 5.00000000 0.02745098 0.95294118 0.74509804
v 196.00000000 18.00000000 0.00000000 0.02745098 0.95294118 0.74509804
v 196.00000000 18.00000000 5.00000000 0.02745098 0.95294118 0.74509804
v 39.00000000 107.00000000 0.00000000 0.02745098 0.95294118 0.74509804
v 39.00000000 107.00000000 5.00000000 0.02745098 0.95294118 0.74509804
v 195.00000000 9.00000000 0.00000000 0.02745098 0.95294118 0.74509804
v 195.00000000 9.00000000 5.00000000 0.02745098 0.95294118 0.74509804
v 38.00000000 134.00000000 0.00000000 0.02745098 0.95294118 0.74509804
v 38.00000000 134.00000000 5.00000000 0.02745098 0.95294118 0.74509804
v 46.00000000 82.00000000 0.00000000 0.02745098 0.95294118 0.74509804
v 46.00000000 82.00000000 5.00000000 0.02745098 0.95294118 0.74509804
v 161.00000000 134.00000000 0.00000000 0.02745098 0.95294118 0.74509804
v 161.00000000 134.00000000 5.00000000 0.02745098 0.95294118 0.74509804
v 194.00000000 8.00000000 0.00000000 0.02745098 0.95294118 0.74509804
v 194.00000000 8.00000000 5.00000000 0.02745098 0.95294118 0.74509804
v 70.00000000 7.00000000 0.00000000 0.02745098 0.95294118 0.74509804
v 70.00000000 7.00000000 5.00000000 0.02745098 0.95294118 0.74509804
v 36.00000000 133.00000000 0.00000000 0.02745098 0.95294118 0.74509804
v 36.00000000 133.00000000 5.00000000 0.02745098 0.95294118 0.74509804
v 192.00000000 7.00000000 0.00000000 0.02745098 0.95294118 0.74509804
v 192.00000000 7.00000000 5.00000000 0.02745098 0.95294118 0.74509804
v 68.00000000 8.00000000 0.00000000 0.02745098 0.95294118 0.74509804
v 68.00000000 8.00000000 5.00000000 0.02745098 0.95294118 0.74509804
v 59.00000000 36.00000000 0.00000000 0.02745098 0.95294118 0.74509804
v 59.00000000 36.00000000 5.00000000 0.02745098 0.95294118 0.74509804
v 34.00000000 130.00000000 0.00000000 0.02745098 0.95294118 0.74509804
v 34.00000000 130.00000000 5.00000000 0.02745098 0.95294118 0.74509804
v 34.00000000 125.00000000 0.00000000 0.02745098 0.95294118 0.74509804
v 34.00000000 125.00000000 5.00000000 0.02745098 0.95294118 0.74509804
v 157.00000000 135.00000000 0.00000000 0.02745098 0.95294118 0.74509804
v 157.00000000 135.00000000 5.00000000 0.02745098 0.95294118 0.74509804
f 31 41 39
f 31 19 41
f 19 29 41
f 41 29 23
f 31 1 25
f 31 39 1
f 39 27 1
f 19 21 29
f 19 47 21
f 37 7 35
f 7 21 35
f 47 35 21
f 5 17 29
f 29 17 23
f 27 49 1
f 27 11 49
f 13 49 11
f 15 49 13
f 37 45 51
f 37 51 7
f 43 33 1
f 25 1 33
f 3 49 9
f 15 9 49
f 40 42 32
f 42 20 32
f 42 30 20
f 24 30 42
f 26 2 32
f 2 40 32
f 2 28 40
f 30 22 20
f 22 48 20
f 36 8 38
f 36 22 8
f 22 36 48
f 30 18 6
f 24 18 30
f 2 50 28
f 50 12 28
f 12 50 14
f 14 50 16
f 52 46 38
f 8 52 38
f 2 34 44
f 34 2 26
f 10 50 4
f 50 10 16
f 8 22 7
f 7 22 21
f 52 8 51
f 51 8 7
f 46 52 45
f 45 52 51
f 38 46 37
f 37 46 45
f 36 38 35
f 35 38 37
f 48 36 47
f 47 36 35
f 20 48 19
f 19 48 47
f 32 20 31
f 31 20 19
f 26 32 25
f 25 32 31
f 34 26 33
f 33 26 25
f 44 34 43
f 43 34 33
f 2 44 1
f 1 44 43
f 50 2 49
f 49 2 1
f 4 50 3
f 3 50 49
f 10 4 9
f 9 4 3
f 16 10 15
f 15 10 9
f 14 16 13
f 13 16 15
f 12 14 11
f 11 14 13
f 28 12 27
f 27 12 11
f 40 28 39
f 39 28 27
f 42 40 41
f 41 40 39
f 24 42 23
f 23 42 41
f 18 24 17
f 17 24 23
f 6 18 5
f 5 18 17
f 22 30 21
f 21 30 29
f 30 6 29
f 29 6 5
f 73 81 79
f 61 67 73
f 73 67 81
f 61 73 69
f 61 69 89
f 89 69 53
f 79 81 71
f 81 91 71
f 61 59 67
f 55 63 77
f 55 77 53
f 89 53 77
f 73 79 95
f 79 65 95
f 57 95 65
f 93 83 91
f 71 91 83
f 85 87 75
f 97 75 87
f 97 59 75
f 61 75 59
f 80 82 74
f 74 68 62
f 82 68 74
f 70 74 62
f 90 70 62
f 54 70 90
f 72 82 80
f 72 92 82
f 68 60 62
f 78 64 56
f 54 78 56
f 78 54 90
f 96 80 74
f 96 66 80
f 66 96 58
f 92 84 94
f 84 92 72
f 76 88 86
f 88 76 98
f 76 60 98
f 60 76 62
f 78 90 77
f 77 90 89
f 64 78 63
f 63 78 77
f 56 64 55
f 55 64 63
f 54 56 53
f 53 56 55
f 70 54 69
f 69 54 53
f 74 70 73
f 73 70 69
f 96 74 95
f 95 74 73
f 58 96 57
f 57 96 95
f 66 58 65
f 65 58 57
f 80 66 79
f 79 66 65
f 72 80 71
f 71 80 79
f 84 72 83
f 83 72 71
f 94 84 93
f 93 84 83
f 92 94 91
f 91 94 93
f 82 92 81
f 81 92 91
f 68 82 67
f 67 82 81
f 60 68 59
f 59 68 67
f 98 60 97
f 97 60 59
f 88 98 87
f 87 98 97
f 86 88 85
f 85 88 87
f 76 86 75
f 75 86 85
f 90 62 89
f 89 62 61
f 62 76 61
f 61 76 75
f 111 99 123
f 111 123 119
f 111 119 129
f 111 113 99
f 125 101 99
f 125 107 101
f 123 101 115
f 123 99 101
f 117 109 119
f 129 109 103
f 129 119 109
f 133 131 105
f 121 105 131
f 121 113 105
f 111 105 113
f 125 135 107
f 127 135 125
f 124 100 112
f 120 124 112
f 130 120 112
f 100 114 112
f 100 102 126
f 102 108 126
f 116 102 124
f 102 100 124
f 120 110 118
f 104 110 130
f 110 120 130
f 106 132 134
f 132 106 122
f 106 114 122
f 114 106 112
f 108 136 126
f 126 136 128
f 136 108 135
f 135 108 107
f 128 136 127
f 127 136 135
f 126 128 125
f 125 128 127
f 100 126 99
f 99 126 125
f 114 100 113
f 113 100 99
f 122 114 121
f 121 114 113
f 132 122 131
f 131 122 121
f 134 132 133
f 133 132 131
f 106 134 105
f 105 134 133
f 112 106 111
f 111 106 105
f 130 112 129
f 129 112 111
f 104 130 103
f 103 130 129
f 110 104 109
f 109 104 103
f 118 110 117
f 117 110 109
f 120 118 119
f 119 118 117
f 124 120 123
f 123 120 119
f 116 124 115
f 115 124 123
f 108 102 107
f 107 102 101
f 102 116 101
f 101 116 115
f 175 167 157
f 179 161 147
f 179 143 159
f 173 159 143
f 173 143 165
f 165 143 151
f 179 159 153
f 179 147 139
f 179 139 143
f 165 151 169
f 149 169 151
f 173 165 145
f 165 137 145
f 165 171 137
f 179 153 141
f 153 177 141
f 175 157 177
f 157 141 177
f 149 163 169
f 149 155 163
f 158 168 176
f 148 162 180
f 160 144 180
f 144 160 174
f 166 144 174
f 152 144 166
f 154 160 180
f 140 148 180
f 144 140 180
f 170 152 166
f 152 170 150
f 146 166 174
f 146 138 166
f 138 172 166
f 142 154 180
f 142 178 154
f 178 158 176
f 178 142 158
f 170 164 150
f 164 156 150
f 156 164 155
f 155 164 163
f 150 156 149
f 149 156 155
f 152 150 151
f 151 150 149
f 144 152 143
f 143 152 151
f 140 144 139
f 139 144 143
f 148 140 147
f 147 140 139
f 162 148 161
f 161 148 147
f 180 162 179
f 179 162 161
f 142 180 141
f 141 180 179
f 158 142 157
f 157 142 141
f 168 158 167
f 167 158 157
f 176 168 175
f 175 168 167
f 178 176 177
f 177 176 175
f 154 178 153
f 153 178 177
f 160 154 159
f 159 154 153
f 174 160 173
f 173 160 159
f 146 174 145
f 145 174 173
f 138 146 137
f 137 146 145
f 172 138 171
f 171 138 137
f 166 172 165
f 165 172 171
f 164 170 163
f 163 170 169
f 170 166 169
f 169 166 165